<svg xmlns="http://www.w3.org/2000/svg" viewBox="0 0 618 807.32"><defs><style>.cls-1{fill:#1c3d5a;}.cls-2,.cls-3{fill:silver;}.cls-3{font-size:700px;font-family:BrushScriptMT, Brush Script MT;}</style></defs><g id="Layer_2" data-name="Layer 2"><g id="Layer_1-2" data-name="Layer 1"><path class="cls-1" d="M309,721.55A26.66,26.66,0,0,1,295.7,718L15.8,556.38a26.65,26.65,0,0,1-13.3-23V210.14a26.66,26.66,0,0,1,13.3-23L295.7,25.51a26.62,26.62,0,0,1,26.6,0l279.9,161.6a26.66,26.66,0,0,1,13.3,23V533.35a26.65,26.65,0,0,1-13.3,23L322.3,718A26.66,26.66,0,0,1,309,721.55Z"/><path class="cls-2" d="M309,24.45a24.16,24.16,0,0,1,12.05,3.22L601,189.28a24.16,24.16,0,0,1,12,20.86V533.35a24.17,24.17,0,0,1-12,20.87l-279.9,161.6a24.09,24.09,0,0,1-24.1,0L17.05,554.22A24.17,24.17,0,0,1,5,533.35V210.14a24.16,24.16,0,0,1,12.05-20.86L297,27.67A24.16,24.16,0,0,1,309,24.45m0-5a29.17,29.17,0,0,0-14.55,3.89L14.55,185A29.1,29.1,0,0,0,0,210.14V533.35a29.1,29.1,0,0,0,14.55,25.2l279.9,161.6a29.09,29.09,0,0,0,29.1,0l279.9-161.6A29.1,29.1,0,0,0,618,533.35V210.14A29.1,29.1,0,0,0,603.45,185L323.55,23.34A29.17,29.17,0,0,0,309,19.45Z"/><text class="cls-3" transform="translate(82.74 570.8)">S</text></g></g></svg>